<?xml version="1.0" encoding="UTF-8" standalone="no"?>
<!-- Generator: Adobe Illustrator 16.0.0, SVG Export Plug-In . SVG Version: 6.00 Build 0)  -->

<svg
   xmlns:dc="http://purl.org/dc/elements/1.1/"
   xmlns:cc="http://creativecommons.org/ns#"
   xmlns:rdf="http://www.w3.org/1999/02/22-rdf-syntax-ns#"
   xmlns:svg="http://www.w3.org/2000/svg"
   xmlns="http://www.w3.org/2000/svg"
   xmlns:sodipodi="http://sodipodi.sourceforge.net/DTD/sodipodi-0.dtd"
   xmlns:inkscape="http://www.inkscape.org/namespaces/inkscape"
   version="1.1"
   id="Calque_1"
   x="0px"
   y="0px"
   width="89.396px"
   height="29.197px"
   viewBox="0 0 89.396 29.197"
   enable-background="new 0 0 89.396 29.197"
   xml:space="preserve"
   inkscape:version="0.48.4 r9939"
   sodipodi:docname="logo_kjing.svg"><metadata
     id="metadata21"><rdf:RDF><cc:Work
         rdf:about=""><dc:format>image/svg+xml</dc:format><dc:type
           rdf:resource="http://purl.org/dc/dcmitype/StillImage" /></cc:Work></rdf:RDF></metadata><defs
     id="defs19" /><sodipodi:namedview
     pagecolor="#ffffff"
     bordercolor="#666666"
     borderopacity="1"
     objecttolerance="10"
     gridtolerance="10"
     guidetolerance="10"
     inkscape:pageopacity="0"
     inkscape:pageshadow="2"
     inkscape:window-width="1179"
     inkscape:window-height="808"
     id="namedview17"
     showgrid="true"
     inkscape:zoom="3.3616758"
     inkscape:cx="76.489384"
     inkscape:cy="14.5985"
     inkscape:window-x="475"
     inkscape:window-y="172"
     inkscape:window-maximized="0"
     inkscape:current-layer="Calque_1"><inkscape:grid
       type="xygrid"
       id="grid2998"
       empspacing="5"
       visible="true"
       enabled="true"
       snapvisiblegridlinesonly="true" /></sodipodi:namedview><g
     id="g5"
     transform="matrix(0.75301827,0,0,0.75301827,15.31993,4.6870032)"><path
       d="m 28.814,3.061 c 0,-0.664 0.318,-0.983 1.011,-0.983 0.664,0 0.983,0.319 0.983,0.983 v 12.364 l 7.578,-7.152 c 0.186,-0.16 0.397,-0.239 0.663,-0.239 0.532,0 1.012,0.346 1.012,0.903 0,0.319 -0.267,0.665 -0.56,0.958 l -4.254,3.988 c 1.597,2.261 3.323,4.626 4.894,6.886 0.186,0.319 0.425,0.719 0.425,1.117 0,0.665 -0.425,0.983 -0.904,0.983 -0.372,0 -0.797,-0.213 -1.01,-0.585 l -4.945,-7.047 -2.897,2.634 v 3.987 c 0,0.639 -0.319,0.957 -1.011,0.957 -0.665,0 -0.983,-0.318 -0.983,-0.957 l -0.002,-18.797 0,0 z"
       id="path7"
       inkscape:connector-curvature="0"
       style="fill:#ffffff" /><path
       d="m 46.958,24.198 c 0,3.111 -0.771,4.999 -3.936,4.999 -0.771,0 -1.17,-0.319 -1.17,-0.931 0,-0.586 0.398,-0.877 1.17,-0.877 1.755,0 1.94,-1.063 1.94,-3.19 V 8.698 c 0,-0.639 0.347,-0.958 1.011,-0.958 0.639,0 0.983,0.319 0.983,0.958 l 0.002,15.5 0,0 z M 44.618,3.273 c 0,0.745 0.585,1.33 1.329,1.33 0.745,0 1.33,-0.585 1.33,-1.33 0,-0.744 -0.585,-1.329 -1.33,-1.329 -0.744,0 -1.329,0.585 -1.329,1.329 z"
       id="path9"
       inkscape:connector-curvature="0"
       style="fill:#ffffff" /><path
       d="m 53.694,1.944 c 0.745,0 1.33,0.585 1.33,1.329 0,0.745 -0.585,1.33 -1.33,1.33 -0.744,0 -1.329,-0.585 -1.329,-1.33 0,-0.744 0.585,-1.329 1.329,-1.329 z m -0.929,6.754 c 0,-0.665 0.345,-0.984 0.982,-0.984 0.665,0 1.037,0.319 1.037,0.984 v 13.134 c 0,0.665 -0.346,0.983 -1.011,0.983 -0.665,0 -1.01,-0.318 -1.01,-0.983 l 0.002,-13.134 0,0 z"
       id="path11"
       inkscape:connector-curvature="0"
       style="fill:#ffffff" /><path
       d="m 60.645,8.884 c 0,-0.691 0.318,-1.037 0.957,-1.037 0.665,0 0.983,0.346 0.983,1.037 v 1.011 c 0.877,-1.596 2.419,-2.313 3.988,-2.313 2.552,0 5.185,1.914 5.185,5.078 v 9.2 c 0,0.638 -0.318,0.957 -0.983,0.957 -0.638,0 -0.957,-0.319 -0.957,-0.957 v -8.35 c 0,-2.686 -1.781,-3.988 -3.562,-3.988 -1.835,0 -3.669,1.356 -3.669,3.988 v 8.351 c 0,0.638 -0.318,0.957 -0.983,0.957 -0.639,0 -0.957,-0.319 -0.957,-0.957 l -0.002,-12.977 0,0 z"
       id="path13"
       inkscape:connector-curvature="0"
       style="fill:#ffffff" /><path
       d="m 87.429,8.379 c 0,-0.585 0.318,-0.878 0.957,-0.878 0.664,0 1.011,0.319 1.011,0.931 v 13.374 c 0,4.68 -3.139,7.021 -6.381,7.021 -1.489,0 -3.244,-0.293 -4.681,-1.196 -0.372,-0.238 -0.531,-0.611 -0.531,-0.984 0,-0.53 0.346,-1.037 0.958,-1.037 0.397,0 0.689,0.214 1.01,0.399 1.011,0.56 2.127,0.824 3.164,0.824 2.393,0 4.493,-1.489 4.493,-4.786 V 20.69 c -0.69,1.729 -2.525,2.42 -4.121,2.42 -4.254,0 -6.487,-3.803 -6.487,-7.791 0,-3.961 2.26,-7.736 6.487,-7.736 1.622,0 3.562,1.116 4.121,2.499 V 8.379 l 0,0 z m -4.174,12.895 c 2.153,0 4.254,-1.969 4.254,-5.903 0,-3.855 -2.152,-5.85 -4.334,-5.85 -2.127,0 -4.308,1.941 -4.308,5.771 0,3.961 2.234,5.982 4.388,5.982 z"
       id="path15"
       inkscape:connector-curvature="0"
       style="fill:#ffffff" /></g><path
     id="path9-7"
     d="m 5.896313,23.90365 c -0.9212132,0 -1.6681739,-0.746896 -1.6681739,-1.668045 V 2.6958793 c 0,-0.9211487 0.746896,-1.6680444 1.6681093,-1.6680444 0.9212131,-6.46e-5 1.6681738,0.7468346 1.6681738,1.6681091 l 0,19.539726 c -6.46e-5,0.921084 -0.7470253,1.66798 -1.6681092,1.66798 z"
     inkscape:connector-curvature="0"
     style="fill:#33ccff;fill-opacity:1" /><path
     style="fill:#ffffff;fill-opacity:1"
     inkscape:connector-curvature="0"
     d="m 18.238096,14.583039 c 0.643141,0.643205 0.643141,1.685959 0,2.329161 -0.643205,0.643205 -1.685955,0.643205 -2.32916,0 -0.643206,-0.643141 -0.643206,-1.686021 0,-2.329161 0.64314,-0.643206 1.685955,-0.643141 2.32916,0 z"
     id="path11-4" /><g
     id="g15"
     transform="matrix(0.06396861,0,0,0.06396861,-0.29482375,-3.5264114)"
     style="fill:#33ccff;fill-opacity:1"><path
       id="path17"
       d="m 224.523,428.805 c -6.671,0 -13.344,-2.546 -18.437,-7.634 L 86.641,301.738 206.087,182.304 c 10.181,-10.182 26.695,-10.177 36.878,0.005 10.183,10.182 10.183,26.696 -0.004,36.878 l -82.562,82.551 82.562,82.55 c 10.188,10.183 10.188,26.695 0.004,36.879 -5.094,5.092 -11.771,7.638 -18.442,7.638 z"
       inkscape:connector-curvature="0"
       style="fill:#33ccff;fill-opacity:1" /></g><g
     id="g19"
     transform="matrix(0.06396861,0,0,0.06396861,-0.29482375,-3.5264114)"
     style="fill:#ffffff;fill-opacity:1"><path
       id="path21"
       d="m 318.502,428.374 c 6.672,0 13.344,-2.547 18.436,-7.636 L 456.385,301.305 336.939,181.872 c -10.178,-10.184 -26.693,-10.178 -36.879,0.004 -10.183,10.182 -10.183,26.696 0.004,36.878 l 82.564,82.551 -82.564,82.55 c -10.187,10.182 -10.187,26.697 -0.004,36.879 5.094,5.093 11.768,7.64 18.442,7.64 z"
       inkscape:connector-curvature="0"
       style="fill:#ffffff;fill-opacity:1" /></g></svg>